<?xml version='1.0' encoding='utf-8'?>
<svg xmlns="http://www.w3.org/2000/svg" id="img_video" width="16" height="16" viewBox="4 4 16 16" preserveAspectRatio="xMidYMid meet" shape-rendering="crispEdges" style="image-rendering:pixelated"><rect id="7-5" x="6" y="4" width="1" height="1" fill="#dddddd" /><rect id="8-5" x="7" y="4" width="1" height="1" fill="#dcdddd" /><rect id="9-5" x="8" y="4" width="1" height="1" fill="#dddddd" /><rect id="10-5" x="9" y="4" width="1" height="1" fill="#dddcdc" /><rect id="11-5" x="10" y="4" width="1" height="1" fill="#dddddd" /><rect id="12-5" x="11" y="4" width="1" height="1" fill="#dddddd" /><rect id="13-5" x="12" y="4" width="1" height="1" fill="#dddddd" /><rect id="14-5" x="13" y="4" width="1" height="1" fill="#dddddd" /><rect id="15-5" x="14" y="4" width="1" height="1" fill="#dddddd" /><rect id="16-5" x="15" y="4" width="1" height="1" fill="#dddcdd" /><rect id="17-5" x="16" y="4" width="1" height="1" fill="#dcdddd" /><rect id="6-6" x="5" y="5" width="1" height="1" fill="#dddddd" /><rect id="7-6" x="6" y="5" width="1" height="1" fill="#dddddd" /><rect id="17-6" x="16" y="5" width="1" height="1" fill="#dcdddd" /><rect id="18-6" x="17" y="5" width="1" height="1" fill="#dddddd" /><rect id="5-7" x="4" y="6" width="1" height="1" fill="#dddddd" /><rect id="6-7" x="5" y="6" width="1" height="1" fill="#dddddd" /><rect id="8-7" x="7" y="6" width="1" height="1" fill="#dddddd" /><rect id="9-7" x="8" y="6" width="1" height="1" fill="#dddddd" /><rect id="10-7" x="9" y="6" width="1" height="1" fill="#dddddd" /><rect id="11-7" x="10" y="6" width="1" height="1" fill="#dddddd" /><rect id="12-7" x="11" y="6" width="1" height="1" fill="#dddcdd" /><rect id="13-7" x="12" y="6" width="1" height="1" fill="#dddddd" /><rect id="14-7" x="13" y="6" width="1" height="1" fill="#dddddc" /><rect id="15-7" x="14" y="6" width="1" height="1" fill="#dddddd" /><rect id="16-7" x="15" y="6" width="1" height="1" fill="#dddddd" /><rect id="18-7" x="17" y="6" width="1" height="1" fill="#dddddd" /><rect id="19-7" x="18" y="6" width="1" height="1" fill="#dddddd" /><rect id="5-8" x="4" y="7" width="1" height="1" fill="#dddddd" /><rect id="7-8" x="6" y="7" width="1" height="1" fill="#dddddd" /><rect id="8-8" x="7" y="7" width="1" height="1" fill="#dddddd" /><rect id="9-8" x="8" y="7" width="1" height="1" fill="#dddddd" /><rect id="10-8" x="9" y="7" width="1" height="1" fill="#dddcdd" /><rect id="11-8" x="10" y="7" width="1" height="1" fill="#dddcdd" /><rect id="12-8" x="11" y="7" width="1" height="1" fill="#dddddd" /><rect id="13-8" x="12" y="7" width="1" height="1" fill="#dddcdd" /><rect id="14-8" x="13" y="7" width="1" height="1" fill="#dddcdd" /><rect id="15-8" x="14" y="7" width="1" height="1" fill="#dddddd" /><rect id="16-8" x="15" y="7" width="1" height="1" fill="#dddcdd" /><rect id="17-8" x="16" y="7" width="1" height="1" fill="#dddddd" /><rect id="19-8" x="18" y="7" width="1" height="1" fill="#dddddc" /><rect id="5-9" x="4" y="8" width="1" height="1" fill="#dddddd" /><rect id="7-9" x="6" y="8" width="1" height="1" fill="#dddddd" /><rect id="8-9" x="7" y="8" width="1" height="1" fill="#dddddd" /><rect id="9-9" x="8" y="8" width="1" height="1" fill="#dddcdd" /><rect id="10-9" x="9" y="8" width="1" height="1" fill="#dcdcdd" /><rect id="13-9" x="12" y="8" width="1" height="1" fill="#dddddc" /><rect id="14-9" x="13" y="8" width="1" height="1" fill="#dddddd" /><rect id="15-9" x="14" y="8" width="1" height="1" fill="#dddddd" /><rect id="16-9" x="15" y="8" width="1" height="1" fill="#dddddc" /><rect id="17-9" x="16" y="8" width="1" height="1" fill="#dddddd" /><rect id="19-9" x="18" y="8" width="1" height="1" fill="#dddddd" /><rect id="5-10" x="4" y="9" width="1" height="1" fill="#dddddd" /><rect id="7-10" x="6" y="9" width="1" height="1" fill="#dddddd" /><rect id="8-10" x="7" y="9" width="1" height="1" fill="#dddddd" /><rect id="9-10" x="8" y="9" width="1" height="1" fill="#dddddd" /><rect id="10-10" x="9" y="9" width="1" height="1" fill="#dcdddd" /><rect id="14-10" x="13" y="9" width="1" height="1" fill="#dddddd" /><rect id="15-10" x="14" y="9" width="1" height="1" fill="#dcdddc" /><rect id="16-10" x="15" y="9" width="1" height="1" fill="#dcdcdd" /><rect id="17-10" x="16" y="9" width="1" height="1" fill="#dddddd" /><rect id="19-10" x="18" y="9" width="1" height="1" fill="#dddddd" /><rect id="5-11" x="4" y="10" width="1" height="1" fill="#dddddd" /><rect id="7-11" x="6" y="10" width="1" height="1" fill="#dddddd" /><rect id="8-11" x="7" y="10" width="1" height="1" fill="#dddddc" /><rect id="9-11" x="8" y="10" width="1" height="1" fill="#dddddd" /><rect id="10-11" x="9" y="10" width="1" height="1" fill="#dddddd" /><rect id="15-11" x="14" y="10" width="1" height="1" fill="#dcdddd" /><rect id="16-11" x="15" y="10" width="1" height="1" fill="#dddddc" /><rect id="17-11" x="16" y="10" width="1" height="1" fill="#dddddd" /><rect id="19-11" x="18" y="10" width="1" height="1" fill="#dddddd" /><rect id="5-12" x="4" y="11" width="1" height="1" fill="#dddddd" /><rect id="7-12" x="6" y="11" width="1" height="1" fill="#dddcdd" /><rect id="8-12" x="7" y="11" width="1" height="1" fill="#dddddd" /><rect id="9-12" x="8" y="11" width="1" height="1" fill="#dddddd" /><rect id="10-12" x="9" y="11" width="1" height="1" fill="#dddddd" /><rect id="14-12" x="13" y="11" width="1" height="1" fill="#dddddd" /><rect id="15-12" x="14" y="11" width="1" height="1" fill="#dddddc" /><rect id="16-12" x="15" y="11" width="1" height="1" fill="#dcdddd" /><rect id="17-12" x="16" y="11" width="1" height="1" fill="#dddddd" /><rect id="19-12" x="18" y="11" width="1" height="1" fill="#dddddd" /><rect id="5-13" x="4" y="12" width="1" height="1" fill="#dddddd" /><rect id="7-13" x="6" y="12" width="1" height="1" fill="#dddddd" /><rect id="8-13" x="7" y="12" width="1" height="1" fill="#dddddd" /><rect id="9-13" x="8" y="12" width="1" height="1" fill="#dddddd" /><rect id="10-13" x="9" y="12" width="1" height="1" fill="#dddddd" /><rect id="13-13" x="12" y="12" width="1" height="1" fill="#dddddd" /><rect id="14-13" x="13" y="12" width="1" height="1" fill="#dcdddd" /><rect id="15-13" x="14" y="12" width="1" height="1" fill="#dddcdd" /><rect id="16-13" x="15" y="12" width="1" height="1" fill="#dddddc" /><rect id="17-13" x="16" y="12" width="1" height="1" fill="#dddddd" /><rect id="19-13" x="18" y="12" width="1" height="1" fill="#dddddd" /><rect id="5-14" x="4" y="13" width="1" height="1" fill="#dddddd" /><rect id="7-14" x="6" y="13" width="1" height="1" fill="#dddddd" /><rect id="8-14" x="7" y="13" width="1" height="1" fill="#dddddc" /><rect id="9-14" x="8" y="13" width="1" height="1" fill="#dddddd" /><rect id="10-14" x="9" y="13" width="1" height="1" fill="#dddddd" /><rect id="11-14" x="10" y="13" width="1" height="1" fill="#dddcdd" /><rect id="12-14" x="11" y="13" width="1" height="1" fill="#dddddd" /><rect id="13-14" x="12" y="13" width="1" height="1" fill="#dddddd" /><rect id="14-14" x="13" y="13" width="1" height="1" fill="#dddcdc" /><rect id="15-14" x="14" y="13" width="1" height="1" fill="#dddcdd" /><rect id="16-14" x="15" y="13" width="1" height="1" fill="#dddddd" /><rect id="17-14" x="16" y="13" width="1" height="1" fill="#dddcdc" /><rect id="19-14" x="18" y="13" width="1" height="1" fill="#dddddd" /><rect id="5-15" x="4" y="14" width="1" height="1" fill="#dddddd" /><rect id="6-15" x="5" y="14" width="1" height="1" fill="#dddddd" /><rect id="8-15" x="7" y="14" width="1" height="1" fill="#dddddd" /><rect id="9-15" x="8" y="14" width="1" height="1" fill="#dddddd" /><rect id="10-15" x="9" y="14" width="1" height="1" fill="#dddddd" /><rect id="11-15" x="10" y="14" width="1" height="1" fill="#dddddd" /><rect id="12-15" x="11" y="14" width="1" height="1" fill="#dddddd" /><rect id="13-15" x="12" y="14" width="1" height="1" fill="#dddddd" /><rect id="14-15" x="13" y="14" width="1" height="1" fill="#dddddc" /><rect id="15-15" x="14" y="14" width="1" height="1" fill="#dddddd" /><rect id="16-15" x="15" y="14" width="1" height="1" fill="#dddddd" /><rect id="18-15" x="17" y="14" width="1" height="1" fill="#dcdddd" /><rect id="19-15" x="18" y="14" width="1" height="1" fill="#dddcdd" /><rect id="6-16" x="5" y="15" width="1" height="1" fill="#dddcdc" /><rect id="7-16" x="6" y="15" width="1" height="1" fill="#dcdddd" /><rect id="17-16" x="16" y="15" width="1" height="1" fill="#dddcdd" /><rect id="18-16" x="17" y="15" width="1" height="1" fill="#dddddc" /><rect id="5-17" x="4" y="16" width="1" height="1" fill="#dddddd" /><rect id="7-17" x="6" y="16" width="1" height="1" fill="#dddddd" /><rect id="8-17" x="7" y="16" width="1" height="1" fill="#dddcdd" /><rect id="9-17" x="8" y="16" width="1" height="1" fill="#dddddd" /><rect id="10-17" x="9" y="16" width="1" height="1" fill="#dddddd" /><rect id="11-17" x="10" y="16" width="1" height="1" fill="#dddddd" /><rect id="12-17" x="11" y="16" width="1" height="1" fill="#dddddc" /><rect id="13-17" x="12" y="16" width="1" height="1" fill="#dddddd" /><rect id="14-17" x="13" y="16" width="1" height="1" fill="#dddddd" /><rect id="15-17" x="14" y="16" width="1" height="1" fill="#dddddd" /><rect id="16-17" x="15" y="16" width="1" height="1" fill="#dddcdd" /><rect id="17-17" x="16" y="16" width="1" height="1" fill="#dddddd" /><rect id="19-17" x="18" y="16" width="1" height="1" fill="#dcdddc" /><rect id="6-18" x="5" y="17" width="1" height="1" fill="#dddddd" /><rect id="18-18" x="17" y="17" width="1" height="1" fill="#dddcdc" /><rect id="7-19" x="6" y="18" width="1" height="1" fill="#dddcdd" /><rect id="8-19" x="7" y="18" width="1" height="1" fill="#dddddd" /><rect id="9-19" x="8" y="18" width="1" height="1" fill="#dddcdd" /><rect id="10-19" x="9" y="18" width="1" height="1" fill="#dddcdc" /><rect id="11-19" x="10" y="18" width="1" height="1" fill="#dddddd" /><rect id="12-19" x="11" y="18" width="1" height="1" fill="#dddddd" /><rect id="13-19" x="12" y="18" width="1" height="1" fill="#dcdddc" /><rect id="14-19" x="13" y="18" width="1" height="1" fill="#dddddd" /><rect id="15-19" x="14" y="18" width="1" height="1" fill="#dddddc" /><rect id="16-19" x="15" y="18" width="1" height="1" fill="#dddddd" /><rect id="17-19" x="16" y="18" width="1" height="1" fill="#dddddd" /></svg>