<?xml version='1.0' encoding='utf-8'?>
<svg xmlns="http://www.w3.org/2000/svg" id="osrs" width="20" height="20" viewBox="2 1 20 20" preserveAspectRatio="xMidYMid meet" shape-rendering="crispEdges" style="image-rendering:pixelated"><rect id="5-2" x="4" y="1" width="1" height="1" fill="#dddddd" /><rect id="6-2" x="5" y="1" width="1" height="1" fill="#dddcdc" /><rect id="7-2" x="6" y="1" width="1" height="1" fill="#dddddd" /><rect id="4-3" x="3" y="2" width="1" height="1" fill="#dddddd" /><rect id="8-3" x="7" y="2" width="1" height="1" fill="#dcdcdd" /><rect id="4-4" x="3" y="3" width="1" height="1" fill="#dddddd" /><rect id="6-4" x="5" y="3" width="1" height="1" fill="#dcdddd" /><rect id="8-4" x="7" y="3" width="1" height="1" fill="#dddddd" /><rect id="4-5" x="3" y="4" width="1" height="1" fill="#dddddc" /><rect id="7-5" x="6" y="4" width="1" height="1" fill="#dddddd" /><rect id="8-5" x="7" y="4" width="1" height="1" fill="#dddcdd" /><rect id="16-5" x="15" y="4" width="1" height="1" fill="#dddddd" /><rect id="17-5" x="16" y="4" width="1" height="1" fill="#dddddd" /><rect id="18-5" x="17" y="4" width="1" height="1" fill="#dcdddc" /><rect id="4-6" x="3" y="5" width="1" height="1" fill="#dddddd" /><rect id="6-6" x="5" y="5" width="1" height="1" fill="#dcdddd" /><rect id="8-6" x="7" y="5" width="1" height="1" fill="#dddddc" /><rect id="15-6" x="14" y="5" width="1" height="1" fill="#dcdddd" /><rect id="16-6" x="15" y="5" width="1" height="1" fill="#dddddc" /><rect id="17-6" x="16" y="5" width="1" height="1" fill="#dddddd" /><rect id="18-6" x="17" y="5" width="1" height="1" fill="#dddddc" /><rect id="5-7" x="4" y="6" width="1" height="1" fill="#dddddd" /><rect id="6-7" x="5" y="6" width="1" height="1" fill="#dddddd" /><rect id="7-7" x="6" y="6" width="1" height="1" fill="#dddddd" /><rect id="14-7" x="13" y="6" width="1" height="1" fill="#dddddd" /><rect id="15-7" x="14" y="6" width="1" height="1" fill="#dcdddd" /><rect id="17-7" x="16" y="6" width="1" height="1" fill="#dddddd" /><rect id="18-7" x="17" y="6" width="1" height="1" fill="#dddcdd" /><rect id="4-8" x="3" y="7" width="1" height="1" fill="#dddcdd" /><rect id="8-8" x="7" y="7" width="1" height="1" fill="#dddcdd" /><rect id="13-8" x="12" y="7" width="1" height="1" fill="#dddddd" /><rect id="14-8" x="13" y="7" width="1" height="1" fill="#dddddd" /><rect id="16-8" x="15" y="7" width="1" height="1" fill="#dddddd" /><rect id="17-8" x="16" y="7" width="1" height="1" fill="#dddcdd" /><rect id="5-9" x="4" y="8" width="1" height="1" fill="#dddcdd" /><rect id="6-9" x="5" y="8" width="1" height="1" fill="#dddddc" /><rect id="7-9" x="6" y="8" width="1" height="1" fill="#dddcdd" /><rect id="12-9" x="11" y="8" width="1" height="1" fill="#dddddd" /><rect id="13-9" x="12" y="8" width="1" height="1" fill="#dddddd" /><rect id="15-9" x="14" y="8" width="1" height="1" fill="#dddddc" /><rect id="16-9" x="15" y="8" width="1" height="1" fill="#dddddc" /><rect id="18-9" x="17" y="8" width="1" height="1" fill="#dcdddd" /><rect id="11-10" x="10" y="9" width="1" height="1" fill="#dddddd" /><rect id="12-10" x="11" y="9" width="1" height="1" fill="#dddcdd" /><rect id="14-10" x="13" y="9" width="1" height="1" fill="#dddddd" /><rect id="15-10" x="14" y="9" width="1" height="1" fill="#dddddd" /><rect id="17-10" x="16" y="9" width="1" height="1" fill="#dddddd" /><rect id="10-11" x="9" y="10" width="1" height="1" fill="#dddddd" /><rect id="11-11" x="10" y="10" width="1" height="1" fill="#dddddd" /><rect id="13-11" x="12" y="10" width="1" height="1" fill="#dddddd" /><rect id="14-11" x="13" y="10" width="1" height="1" fill="#dddddd" /><rect id="16-11" x="15" y="10" width="1" height="1" fill="#dcdddd" /><rect id="5-12" x="4" y="11" width="1" height="1" fill="#dddddd" /><rect id="6-12" x="5" y="11" width="1" height="1" fill="#dddddd" /><rect id="7-12" x="6" y="11" width="1" height="1" fill="#dddddd" /><rect id="9-12" x="8" y="11" width="1" height="1" fill="#dddddd" /><rect id="10-12" x="9" y="11" width="1" height="1" fill="#dddddd" /><rect id="12-12" x="11" y="11" width="1" height="1" fill="#dddcdd" /><rect id="13-12" x="12" y="11" width="1" height="1" fill="#dddddd" /><rect id="15-12" x="14" y="11" width="1" height="1" fill="#dddddc" /><rect id="5-13" x="4" y="12" width="1" height="1" fill="#dddcdd" /><rect id="7-13" x="6" y="12" width="1" height="1" fill="#dddddd" /><rect id="8-13" x="7" y="12" width="1" height="1" fill="#dddddd" /><rect id="9-13" x="8" y="12" width="1" height="1" fill="#dddcdd" /><rect id="11-13" x="10" y="12" width="1" height="1" fill="#dddddd" /><rect id="12-13" x="11" y="12" width="1" height="1" fill="#dddddd" /><rect id="14-13" x="13" y="12" width="1" height="1" fill="#dddddd" /><rect id="8-14" x="7" y="13" width="1" height="1" fill="#dddcdd" /><rect id="9-14" x="8" y="13" width="1" height="1" fill="#dddddc" /><rect id="10-14" x="9" y="13" width="1" height="1" fill="#dddddd" /><rect id="11-14" x="10" y="13" width="1" height="1" fill="#dddddd" /><rect id="13-14" x="12" y="13" width="1" height="1" fill="#dcdddd" /><rect id="17-14" x="16" y="13" width="1" height="1" fill="#dddcdd" /><rect id="18-14" x="17" y="13" width="1" height="1" fill="#dcdddd" /><rect id="19-14" x="18" y="13" width="1" height="1" fill="#dddddd" /><rect id="7-15" x="6" y="14" width="1" height="1" fill="#dddddc" /><rect id="9-15" x="8" y="14" width="1" height="1" fill="#dddddd" /><rect id="10-15" x="9" y="14" width="1" height="1" fill="#dddddd" /><rect id="12-15" x="11" y="14" width="1" height="1" fill="#dddcdd" /><rect id="16-15" x="15" y="14" width="1" height="1" fill="#dddddd" /><rect id="17-15" x="16" y="14" width="1" height="1" fill="#dddddd" /><rect id="20-15" x="19" y="14" width="1" height="1" fill="#dddddd" /><rect id="6-16" x="5" y="15" width="1" height="1" fill="#dddddd" /><rect id="7-16" x="6" y="15" width="1" height="1" fill="#dddcdd" /><rect id="8-16" x="7" y="15" width="1" height="1" fill="#dddddc" /><rect id="10-16" x="9" y="15" width="1" height="1" fill="#dddddd" /><rect id="11-16" x="10" y="15" width="1" height="1" fill="#dddcdc" /><rect id="16-16" x="15" y="15" width="1" height="1" fill="#dcdcdd" /><rect id="19-16" x="18" y="15" width="1" height="1" fill="#dcdddd" /><rect id="20-16" x="19" y="15" width="1" height="1" fill="#dddddd" /><rect id="5-17" x="4" y="16" width="1" height="1" fill="#dcdddc" /><rect id="6-17" x="5" y="16" width="1" height="1" fill="#dddddd" /><rect id="7-17" x="6" y="16" width="1" height="1" fill="#dddddd" /><rect id="11-17" x="10" y="16" width="1" height="1" fill="#dddcdc" /><rect id="16-17" x="15" y="16" width="1" height="1" fill="#dcdddd" /><rect id="17-17" x="16" y="16" width="1" height="1" fill="#dddddd" /><rect id="20-17" x="19" y="16" width="1" height="1" fill="#dddddd" /><rect id="4-18" x="3" y="17" width="1" height="1" fill="#dddddd" /><rect id="5-18" x="4" y="17" width="1" height="1" fill="#dddddd" /><rect id="6-18" x="5" y="17" width="1" height="1" fill="#dddddc" /><rect id="8-18" x="7" y="17" width="1" height="1" fill="#dddddd" /><rect id="10-18" x="9" y="17" width="1" height="1" fill="#dddddd" /><rect id="11-18" x="10" y="17" width="1" height="1" fill="#dddddd" /><rect id="16-18" x="15" y="17" width="1" height="1" fill="#dcdddd" /><rect id="19-18" x="18" y="17" width="1" height="1" fill="#dddddd" /><rect id="20-18" x="19" y="17" width="1" height="1" fill="#dddddc" /><rect id="4-19" x="3" y="18" width="1" height="1" fill="#dddddd" /><rect id="5-19" x="4" y="18" width="1" height="1" fill="#dddcdd" /><rect id="7-19" x="6" y="18" width="1" height="1" fill="#dddddd" /><rect id="17-19" x="16" y="18" width="1" height="1" fill="#dddddc" /><rect id="18-19" x="17" y="18" width="1" height="1" fill="#dddddc" /><rect id="19-19" x="18" y="18" width="1" height="1" fill="#dddcdd" /><rect id="6-20" x="5" y="19" width="1" height="1" fill="#dddddd" /><rect id="10-20" x="9" y="19" width="1" height="1" fill="#dddddd" /><rect id="11-20" x="10" y="19" width="1" height="1" fill="#dddcdd" /><rect id="16-20" x="15" y="19" width="1" height="1" fill="#dddddd" /><rect id="20-20" x="19" y="19" width="1" height="1" fill="#dcdddc" /><rect id="4-21" x="3" y="20" width="1" height="1" fill="#dddddd" /><rect id="5-21" x="4" y="20" width="1" height="1" fill="#dddddd" /><rect id="17-21" x="16" y="20" width="1" height="1" fill="#dddddd" /><rect id="18-21" x="17" y="20" width="1" height="1" fill="#dddddd" /><rect id="19-21" x="18" y="20" width="1" height="1" fill="#dddddd" /></svg>