<?xml version="1.0" encoding="UTF-8" standalone="no"?><svg xmlns="http://www.w3.org/2000/svg" id="pokémon" width="23" height="23" viewBox="0 0 23 23" preserveAspectRatio="xMidYMid meet" rendering="crispEdges"><rect id="8-4" x="7" y="3" width="1" height="1" shape-rendering="crispEdges" style="fill:#dddddd;opacity:255;"></rect><rect id="9-4" x="8" y="3" width="1" height="1" shape-rendering="crispEdges" style="fill:#dddddd;opacity:255;"></rect><rect id="10-4" x="9" y="3" width="1" height="1" shape-rendering="crispEdges" style="fill:#dddcdd;opacity:255;"></rect><rect id="11-4" x="10" y="3" width="1" height="1" shape-rendering="crispEdges" style="fill:#dddddd;opacity:255;"></rect><rect id="12-4" x="11" y="3" width="1" height="1" shape-rendering="crispEdges" style="fill:#dddddd;opacity:255;"></rect><rect id="13-4" x="12" y="3" width="1" height="1" shape-rendering="crispEdges" style="fill:#dcdcdd;opacity:255;"></rect><rect id="14-4" x="13" y="3" width="1" height="1" shape-rendering="crispEdges" style="fill:#dddddd;opacity:255;"></rect><rect id="15-4" x="14" y="3" width="1" height="1" shape-rendering="crispEdges" style="fill:#dddddd;opacity:255;"></rect><rect id="16-4" x="15" y="3" width="1" height="1" shape-rendering="crispEdges" style="fill:#dddcdd;opacity:255;"></rect><rect id="7-5" x="6" y="4" width="1" height="1" shape-rendering="crispEdges" style="fill:#dddddd;opacity:255;"></rect><rect id="8-5" x="7" y="4" width="1" height="1" shape-rendering="crispEdges" style="fill:#dddddd;opacity:255;"></rect><rect id="16-5" x="15" y="4" width="1" height="1" shape-rendering="crispEdges" style="fill:#dddcdd;opacity:255;"></rect><rect id="17-5" x="16" y="4" width="1" height="1" shape-rendering="crispEdges" style="fill:#dddddc;opacity:255;"></rect><rect id="6-6" x="5" y="5" width="1" height="1" shape-rendering="crispEdges" style="fill:#dcdddd;opacity:255;"></rect><rect id="7-6" x="6" y="5" width="1" height="1" shape-rendering="crispEdges" style="fill:#dddddd;opacity:255;"></rect><rect id="17-6" x="16" y="5" width="1" height="1" shape-rendering="crispEdges" style="fill:#dddcdc;opacity:255;"></rect><rect id="18-6" x="17" y="5" width="1" height="1" shape-rendering="crispEdges" style="fill:#dddddd;opacity:255;"></rect><rect id="5-7" x="4" y="6" width="1" height="1" shape-rendering="crispEdges" style="fill:#dddddd;opacity:255;"></rect><rect id="6-7" x="5" y="6" width="1" height="1" shape-rendering="crispEdges" style="fill:#dddddd;opacity:255;"></rect><rect id="18-7" x="17" y="6" width="1" height="1" shape-rendering="crispEdges" style="fill:#dddddd;opacity:255;"></rect><rect id="19-7" x="18" y="6" width="1" height="1" shape-rendering="crispEdges" style="fill:#dcdcdc;opacity:255;"></rect><rect id="5-8" x="4" y="7" width="1" height="1" shape-rendering="crispEdges" style="fill:#dddddd;opacity:255;"></rect><rect id="19-8" x="18" y="7" width="1" height="1" shape-rendering="crispEdges" style="fill:#dddddd;opacity:255;"></rect><rect id="5-9" x="4" y="8" width="1" height="1" shape-rendering="crispEdges" style="fill:#dddddd;opacity:255;"></rect><rect id="19-9" x="18" y="8" width="1" height="1" shape-rendering="crispEdges" style="fill:#dddddd;opacity:255;"></rect><rect id="5-10" x="4" y="9" width="1" height="1" shape-rendering="crispEdges" style="fill:#dddddd;opacity:255;"></rect><rect id="11-10" x="10" y="9" width="1" height="1" shape-rendering="crispEdges" style="fill:#dddddd;opacity:255;"></rect><rect id="12-10" x="11" y="9" width="1" height="1" shape-rendering="crispEdges" style="fill:#dcdddd;opacity:255;"></rect><rect id="13-10" x="12" y="9" width="1" height="1" shape-rendering="crispEdges" style="fill:#dddcdd;opacity:255;"></rect><rect id="19-10" x="18" y="9" width="1" height="1" shape-rendering="crispEdges" style="fill:#dddddd;opacity:255;"></rect><rect id="5-11" x="4" y="10" width="1" height="1" shape-rendering="crispEdges" style="fill:#dddddd;opacity:255;"></rect><rect id="6-11" x="5" y="10" width="1" height="1" shape-rendering="crispEdges" style="fill:#dddcdc;opacity:255;"></rect><rect id="10-11" x="9" y="10" width="1" height="1" shape-rendering="crispEdges" style="fill:#dddcdd;opacity:255;"></rect><rect id="11-11" x="10" y="10" width="1" height="1" shape-rendering="crispEdges" style="fill:#dddddd;opacity:255;"></rect><rect id="12-11" x="11" y="10" width="1" height="1" shape-rendering="crispEdges" style="fill:#dddddc;opacity:255;"></rect><rect id="13-11" x="12" y="10" width="1" height="1" shape-rendering="crispEdges" style="fill:#dddddd;opacity:255;"></rect><rect id="14-11" x="13" y="10" width="1" height="1" shape-rendering="crispEdges" style="fill:#dddddd;opacity:255;"></rect><rect id="18-11" x="17" y="10" width="1" height="1" shape-rendering="crispEdges" style="fill:#dddddd;opacity:255;"></rect><rect id="19-11" x="18" y="10" width="1" height="1" shape-rendering="crispEdges" style="fill:#dcdddd;opacity:255;"></rect><rect id="5-12" x="4" y="11" width="1" height="1" shape-rendering="crispEdges" style="fill:#dddddd;opacity:255;"></rect><rect id="6-12" x="5" y="11" width="1" height="1" shape-rendering="crispEdges" style="fill:#dddcdd;opacity:255;"></rect><rect id="7-12" x="6" y="11" width="1" height="1" shape-rendering="crispEdges" style="fill:#dddddd;opacity:255;"></rect><rect id="8-12" x="7" y="11" width="1" height="1" shape-rendering="crispEdges" style="fill:#dddddd;opacity:255;"></rect><rect id="10-12" x="9" y="11" width="1" height="1" shape-rendering="crispEdges" style="fill:#dddcdd;opacity:255;"></rect><rect id="11-12" x="10" y="11" width="1" height="1" shape-rendering="crispEdges" style="fill:#dddcdd;opacity:255;"></rect><rect id="12-12" x="11" y="11" width="1" height="1" shape-rendering="crispEdges" style="fill:#dddddd;opacity:255;"></rect><rect id="13-12" x="12" y="11" width="1" height="1" shape-rendering="crispEdges" style="fill:#dddddd;opacity:255;"></rect><rect id="14-12" x="13" y="11" width="1" height="1" shape-rendering="crispEdges" style="fill:#dddddd;opacity:255;"></rect><rect id="16-12" x="15" y="11" width="1" height="1" shape-rendering="crispEdges" style="fill:#dddddd;opacity:255;"></rect><rect id="17-12" x="16" y="11" width="1" height="1" shape-rendering="crispEdges" style="fill:#dddddd;opacity:255;"></rect><rect id="18-12" x="17" y="11" width="1" height="1" shape-rendering="crispEdges" style="fill:#dddddd;opacity:255;"></rect><rect id="19-12" x="18" y="11" width="1" height="1" shape-rendering="crispEdges" style="fill:#dddddd;opacity:255;"></rect><rect id="5-13" x="4" y="12" width="1" height="1" shape-rendering="crispEdges" style="fill:#dddddd;opacity:255;"></rect><rect id="6-13" x="5" y="12" width="1" height="1" shape-rendering="crispEdges" style="fill:#dddddd;opacity:255;"></rect><rect id="7-13" x="6" y="12" width="1" height="1" shape-rendering="crispEdges" style="fill:#dddddd;opacity:255;"></rect><rect id="8-13" x="7" y="12" width="1" height="1" shape-rendering="crispEdges" style="fill:#dddddd;opacity:255;"></rect><rect id="9-13" x="8" y="12" width="1" height="1" shape-rendering="crispEdges" style="fill:#dddcdd;opacity:255;"></rect><rect id="10-13" x="9" y="12" width="1" height="1" shape-rendering="crispEdges" style="fill:#dddddd;opacity:255;"></rect><rect id="11-13" x="10" y="12" width="1" height="1" shape-rendering="crispEdges" style="fill:#dddddd;opacity:255;"></rect><rect id="12-13" x="11" y="12" width="1" height="1" shape-rendering="crispEdges" style="fill:#dcdddd;opacity:255;"></rect><rect id="13-13" x="12" y="12" width="1" height="1" shape-rendering="crispEdges" style="fill:#dcdddd;opacity:255;"></rect><rect id="14-13" x="13" y="12" width="1" height="1" shape-rendering="crispEdges" style="fill:#dddddd;opacity:255;"></rect><rect id="15-13" x="14" y="12" width="1" height="1" shape-rendering="crispEdges" style="fill:#dddddd;opacity:255;"></rect><rect id="16-13" x="15" y="12" width="1" height="1" shape-rendering="crispEdges" style="fill:#dddddc;opacity:255;"></rect><rect id="17-13" x="16" y="12" width="1" height="1" shape-rendering="crispEdges" style="fill:#dddddc;opacity:255;"></rect><rect id="18-13" x="17" y="12" width="1" height="1" shape-rendering="crispEdges" style="fill:#dddddc;opacity:255;"></rect><rect id="19-13" x="18" y="12" width="1" height="1" shape-rendering="crispEdges" style="fill:#dddddd;opacity:255;"></rect><rect id="5-14" x="4" y="13" width="1" height="1" shape-rendering="crispEdges" style="fill:#dddddd;opacity:255;"></rect><rect id="6-14" x="5" y="13" width="1" height="1" shape-rendering="crispEdges" style="fill:#dddddd;opacity:255;"></rect><rect id="7-14" x="6" y="13" width="1" height="1" shape-rendering="crispEdges" style="fill:#dddddd;opacity:255;"></rect><rect id="8-14" x="7" y="13" width="1" height="1" shape-rendering="crispEdges" style="fill:#dddddd;opacity:255;"></rect><rect id="9-14" x="8" y="13" width="1" height="1" shape-rendering="crispEdges" style="fill:#dddddd;opacity:255;"></rect><rect id="11-14" x="10" y="13" width="1" height="1" shape-rendering="crispEdges" style="fill:#dddddd;opacity:255;"></rect><rect id="12-14" x="11" y="13" width="1" height="1" shape-rendering="crispEdges" style="fill:#dddddd;opacity:255;"></rect><rect id="13-14" x="12" y="13" width="1" height="1" shape-rendering="crispEdges" style="fill:#dddddd;opacity:255;"></rect><rect id="15-14" x="14" y="13" width="1" height="1" shape-rendering="crispEdges" style="fill:#dddddd;opacity:255;"></rect><rect id="16-14" x="15" y="13" width="1" height="1" shape-rendering="crispEdges" style="fill:#dddddc;opacity:255;"></rect><rect id="17-14" x="16" y="13" width="1" height="1" shape-rendering="crispEdges" style="fill:#dddddd;opacity:255;"></rect><rect id="18-14" x="17" y="13" width="1" height="1" shape-rendering="crispEdges" style="fill:#dddddd;opacity:255;"></rect><rect id="19-14" x="18" y="13" width="1" height="1" shape-rendering="crispEdges" style="fill:#dddddd;opacity:255;"></rect><rect id="5-15" x="4" y="14" width="1" height="1" shape-rendering="crispEdges" style="fill:#dddddd;opacity:255;"></rect><rect id="6-15" x="5" y="14" width="1" height="1" shape-rendering="crispEdges" style="fill:#dddddd;opacity:255;"></rect><rect id="7-15" x="6" y="14" width="1" height="1" shape-rendering="crispEdges" style="fill:#dddddd;opacity:255;"></rect><rect id="8-15" x="7" y="14" width="1" height="1" shape-rendering="crispEdges" style="fill:#dddddd;opacity:255;"></rect><rect id="9-15" x="8" y="14" width="1" height="1" shape-rendering="crispEdges" style="fill:#dddcdd;opacity:255;"></rect><rect id="10-15" x="9" y="14" width="1" height="1" shape-rendering="crispEdges" style="fill:#dddddc;opacity:255;"></rect><rect id="14-15" x="13" y="14" width="1" height="1" shape-rendering="crispEdges" style="fill:#dcdddd;opacity:255;"></rect><rect id="15-15" x="14" y="14" width="1" height="1" shape-rendering="crispEdges" style="fill:#dddddd;opacity:255;"></rect><rect id="16-15" x="15" y="14" width="1" height="1" shape-rendering="crispEdges" style="fill:#dddddc;opacity:255;"></rect><rect id="17-15" x="16" y="14" width="1" height="1" shape-rendering="crispEdges" style="fill:#dddddd;opacity:255;"></rect><rect id="18-15" x="17" y="14" width="1" height="1" shape-rendering="crispEdges" style="fill:#dddddc;opacity:255;"></rect><rect id="19-15" x="18" y="14" width="1" height="1" shape-rendering="crispEdges" style="fill:#dddddd;opacity:255;"></rect><rect id="6-16" x="5" y="15" width="1" height="1" shape-rendering="crispEdges" style="fill:#dddddd;opacity:255;"></rect><rect id="7-16" x="6" y="15" width="1" height="1" shape-rendering="crispEdges" style="fill:#dddddd;opacity:255;"></rect><rect id="8-16" x="7" y="15" width="1" height="1" shape-rendering="crispEdges" style="fill:#dcdddd;opacity:255;"></rect><rect id="9-16" x="8" y="15" width="1" height="1" shape-rendering="crispEdges" style="fill:#dddddd;opacity:255;"></rect><rect id="10-16" x="9" y="15" width="1" height="1" shape-rendering="crispEdges" style="fill:#dddddd;opacity:255;"></rect><rect id="11-16" x="10" y="15" width="1" height="1" shape-rendering="crispEdges" style="fill:#dddddd;opacity:255;"></rect><rect id="12-16" x="11" y="15" width="1" height="1" shape-rendering="crispEdges" style="fill:#dcdddd;opacity:255;"></rect><rect id="13-16" x="12" y="15" width="1" height="1" shape-rendering="crispEdges" style="fill:#dddddc;opacity:255;"></rect><rect id="14-16" x="13" y="15" width="1" height="1" shape-rendering="crispEdges" style="fill:#dcdddd;opacity:255;"></rect><rect id="15-16" x="14" y="15" width="1" height="1" shape-rendering="crispEdges" style="fill:#dddddc;opacity:255;"></rect><rect id="16-16" x="15" y="15" width="1" height="1" shape-rendering="crispEdges" style="fill:#dddddd;opacity:255;"></rect><rect id="17-16" x="16" y="15" width="1" height="1" shape-rendering="crispEdges" style="fill:#dddddc;opacity:255;"></rect><rect id="18-16" x="17" y="15" width="1" height="1" shape-rendering="crispEdges" style="fill:#dddddd;opacity:255;"></rect><rect id="5-17" x="4" y="16" width="1" height="1" shape-rendering="crispEdges" style="fill:#dddddd;opacity:255;"></rect><rect id="7-17" x="6" y="16" width="1" height="1" shape-rendering="crispEdges" style="fill:#dddddd;opacity:255;"></rect><rect id="8-17" x="7" y="16" width="1" height="1" shape-rendering="crispEdges" style="fill:#dddddd;opacity:255;"></rect><rect id="9-17" x="8" y="16" width="1" height="1" shape-rendering="crispEdges" style="fill:#dddddd;opacity:255;"></rect><rect id="10-17" x="9" y="16" width="1" height="1" shape-rendering="crispEdges" style="fill:#dddddd;opacity:255;"></rect><rect id="11-17" x="10" y="16" width="1" height="1" shape-rendering="crispEdges" style="fill:#dddcdd;opacity:255;"></rect><rect id="12-17" x="11" y="16" width="1" height="1" shape-rendering="crispEdges" style="fill:#dddddd;opacity:255;"></rect><rect id="13-17" x="12" y="16" width="1" height="1" shape-rendering="crispEdges" style="fill:#dddddd;opacity:255;"></rect><rect id="14-17" x="13" y="16" width="1" height="1" shape-rendering="crispEdges" style="fill:#dddddd;opacity:255;"></rect><rect id="15-17" x="14" y="16" width="1" height="1" shape-rendering="crispEdges" style="fill:#dddddc;opacity:255;"></rect><rect id="16-17" x="15" y="16" width="1" height="1" shape-rendering="crispEdges" style="fill:#dddddd;opacity:255;"></rect><rect id="17-17" x="16" y="16" width="1" height="1" shape-rendering="crispEdges" style="fill:#dcdddd;opacity:255;"></rect><rect id="19-17" x="18" y="16" width="1" height="1" shape-rendering="crispEdges" style="fill:#dddddd;opacity:255;"></rect><rect id="6-18" x="5" y="17" width="1" height="1" shape-rendering="crispEdges" style="fill:#dddddd;opacity:255;"></rect><rect id="8-18" x="7" y="17" width="1" height="1" shape-rendering="crispEdges" style="fill:#dddcdd;opacity:255;"></rect><rect id="9-18" x="8" y="17" width="1" height="1" shape-rendering="crispEdges" style="fill:#dddddd;opacity:255;"></rect><rect id="10-18" x="9" y="17" width="1" height="1" shape-rendering="crispEdges" style="fill:#dddddd;opacity:255;"></rect><rect id="11-18" x="10" y="17" width="1" height="1" shape-rendering="crispEdges" style="fill:#dddddd;opacity:255;"></rect><rect id="12-18" x="11" y="17" width="1" height="1" shape-rendering="crispEdges" style="fill:#dddddd;opacity:255;"></rect><rect id="13-18" x="12" y="17" width="1" height="1" shape-rendering="crispEdges" style="fill:#dddddd;opacity:255;"></rect><rect id="14-18" x="13" y="17" width="1" height="1" shape-rendering="crispEdges" style="fill:#dddddd;opacity:255;"></rect><rect id="15-18" x="14" y="17" width="1" height="1" shape-rendering="crispEdges" style="fill:#dddddd;opacity:255;"></rect><rect id="16-18" x="15" y="17" width="1" height="1" shape-rendering="crispEdges" style="fill:#dddddd;opacity:255;"></rect><rect id="18-18" x="17" y="17" width="1" height="1" shape-rendering="crispEdges" style="fill:#dcdddd;opacity:255;"></rect><rect id="7-19" x="6" y="18" width="1" height="1" shape-rendering="crispEdges" style="fill:#dddddd;opacity:255;"></rect><rect id="17-19" x="16" y="18" width="1" height="1" shape-rendering="crispEdges" style="fill:#dddddd;opacity:255;"></rect><rect id="8-20" x="7" y="19" width="1" height="1" shape-rendering="crispEdges" style="fill:#dddcdd;opacity:255;"></rect><rect id="9-20" x="8" y="19" width="1" height="1" shape-rendering="crispEdges" style="fill:#dddddd;opacity:255;"></rect><rect id="10-20" x="9" y="19" width="1" height="1" shape-rendering="crispEdges" style="fill:#dddddd;opacity:255;"></rect><rect id="11-20" x="10" y="19" width="1" height="1" shape-rendering="crispEdges" style="fill:#dcdddd;opacity:255;"></rect><rect id="12-20" x="11" y="19" width="1" height="1" shape-rendering="crispEdges" style="fill:#dddddd;opacity:255;"></rect><rect id="13-20" x="12" y="19" width="1" height="1" shape-rendering="crispEdges" style="fill:#dcdddd;opacity:255;"></rect><rect id="14-20" x="13" y="19" width="1" height="1" shape-rendering="crispEdges" style="fill:#dcdddd;opacity:255;"></rect><rect id="15-20" x="14" y="19" width="1" height="1" shape-rendering="crispEdges" style="fill:#dddddd;opacity:255;"></rect><rect id="16-20" x="15" y="19" width="1" height="1" shape-rendering="crispEdges" style="fill:#dddddd;opacity:255;"></rect></svg>