<?xml version="1.0" encoding="UTF-8" standalone="no"?><svg xmlns="http://www.w3.org/2000/svg" id="tools" width="23" height="23" viewBox="0 0 23 23" preserveAspectRatio="xMidYMid meet" rendering="crispEdges"><rect id="5-5" x="4" y="4" width="1" height="1" shape-rendering="crispEdges" style="fill:#dddddd;opacity:255;"></rect><rect id="9-5" x="8" y="4" width="1" height="1" shape-rendering="crispEdges" style="fill:#dddddc;opacity:255;"></rect><rect id="14-5" x="13" y="4" width="1" height="1" shape-rendering="crispEdges" style="fill:#dddddd;opacity:255;"></rect><rect id="15-5" x="14" y="4" width="1" height="1" shape-rendering="crispEdges" style="fill:#dddddd;opacity:255;"></rect><rect id="16-5" x="15" y="4" width="1" height="1" shape-rendering="crispEdges" style="fill:#dddddc;opacity:255;"></rect><rect id="17-5" x="16" y="4" width="1" height="1" shape-rendering="crispEdges" style="fill:#dddddd;opacity:255;"></rect><rect id="18-5" x="17" y="4" width="1" height="1" shape-rendering="crispEdges" style="fill:#dddcdd;opacity:255;"></rect><rect id="4-6" x="3" y="5" width="1" height="1" shape-rendering="crispEdges" style="fill:#dddddd;opacity:255;"></rect><rect id="5-6" x="4" y="5" width="1" height="1" shape-rendering="crispEdges" style="fill:#dddddd;opacity:255;"></rect><rect id="9-6" x="8" y="5" width="1" height="1" shape-rendering="crispEdges" style="fill:#dddddd;opacity:255;"></rect><rect id="10-6" x="9" y="5" width="1" height="1" shape-rendering="crispEdges" style="fill:#dddddd;opacity:255;"></rect><rect id="14-6" x="13" y="5" width="1" height="1" shape-rendering="crispEdges" style="fill:#dddcdd;opacity:255;"></rect><rect id="15-6" x="14" y="5" width="1" height="1" shape-rendering="crispEdges" style="fill:#dddddd;opacity:255;"></rect><rect id="16-6" x="15" y="5" width="1" height="1" shape-rendering="crispEdges" style="fill:#dddddd;opacity:255;"></rect><rect id="17-6" x="16" y="5" width="1" height="1" shape-rendering="crispEdges" style="fill:#dddddd;opacity:255;"></rect><rect id="18-6" x="17" y="5" width="1" height="1" shape-rendering="crispEdges" style="fill:#dddddd;opacity:255;"></rect><rect id="19-6" x="18" y="5" width="1" height="1" shape-rendering="crispEdges" style="fill:#dddddd;opacity:255;"></rect><rect id="4-7" x="3" y="6" width="1" height="1" shape-rendering="crispEdges" style="fill:#dddddd;opacity:255;"></rect><rect id="5-7" x="4" y="6" width="1" height="1" shape-rendering="crispEdges" style="fill:#dcdcdd;opacity:255;"></rect><rect id="9-7" x="8" y="6" width="1" height="1" shape-rendering="crispEdges" style="fill:#dddddc;opacity:255;"></rect><rect id="10-7" x="9" y="6" width="1" height="1" shape-rendering="crispEdges" style="fill:#dddddd;opacity:255;"></rect><rect id="14-7" x="13" y="6" width="1" height="1" shape-rendering="crispEdges" style="fill:#dddddd;opacity:255;"></rect><rect id="15-7" x="14" y="6" width="1" height="1" shape-rendering="crispEdges" style="fill:#dddddd;opacity:255;"></rect><rect id="16-7" x="15" y="6" width="1" height="1" shape-rendering="crispEdges" style="fill:#dcdcdd;opacity:255;"></rect><rect id="17-7" x="16" y="6" width="1" height="1" shape-rendering="crispEdges" style="fill:#dcdddd;opacity:255;"></rect><rect id="18-7" x="17" y="6" width="1" height="1" shape-rendering="crispEdges" style="fill:#dddcdd;opacity:255;"></rect><rect id="19-7" x="18" y="6" width="1" height="1" shape-rendering="crispEdges" style="fill:#dcdddd;opacity:255;"></rect><rect id="20-7" x="19" y="6" width="1" height="1" shape-rendering="crispEdges" style="fill:#dddddd;opacity:255;"></rect><rect id="4-8" x="3" y="7" width="1" height="1" shape-rendering="crispEdges" style="fill:#dddddd;opacity:255;"></rect><rect id="5-8" x="4" y="7" width="1" height="1" shape-rendering="crispEdges" style="fill:#dddddd;opacity:255;"></rect><rect id="6-8" x="5" y="7" width="1" height="1" shape-rendering="crispEdges" style="fill:#dddddd;opacity:255;"></rect><rect id="8-8" x="7" y="7" width="1" height="1" shape-rendering="crispEdges" style="fill:#dddddd;opacity:255;"></rect><rect id="9-8" x="8" y="7" width="1" height="1" shape-rendering="crispEdges" style="fill:#dddddd;opacity:255;"></rect><rect id="10-8" x="9" y="7" width="1" height="1" shape-rendering="crispEdges" style="fill:#dddddd;opacity:255;"></rect><rect id="5-9" x="4" y="8" width="1" height="1" shape-rendering="crispEdges" style="fill:#dddddd;opacity:255;"></rect><rect id="6-9" x="5" y="8" width="1" height="1" shape-rendering="crispEdges" style="fill:#dddddd;opacity:255;"></rect><rect id="7-9" x="6" y="8" width="1" height="1" shape-rendering="crispEdges" style="fill:#dddddd;opacity:255;"></rect><rect id="8-9" x="7" y="8" width="1" height="1" shape-rendering="crispEdges" style="fill:#dddddd;opacity:255;"></rect><rect id="9-9" x="8" y="8" width="1" height="1" shape-rendering="crispEdges" style="fill:#dddddd;opacity:255;"></rect><rect id="14-9" x="13" y="8" width="1" height="1" shape-rendering="crispEdges" style="fill:#dddddd;opacity:255;"></rect><rect id="16-9" x="15" y="8" width="1" height="1" shape-rendering="crispEdges" style="fill:#dddddd;opacity:255;"></rect><rect id="17-9" x="16" y="8" width="1" height="1" shape-rendering="crispEdges" style="fill:#dddddd;opacity:255;"></rect><rect id="19-9" x="18" y="8" width="1" height="1" shape-rendering="crispEdges" style="fill:#dddddd;opacity:255;"></rect><rect id="20-9" x="19" y="8" width="1" height="1" shape-rendering="crispEdges" style="fill:#dddddd;opacity:255;"></rect><rect id="4-10" x="3" y="9" width="1" height="1" shape-rendering="crispEdges" style="fill:#dddddd;opacity:255;"></rect><rect id="6-10" x="5" y="9" width="1" height="1" shape-rendering="crispEdges" style="fill:#dddddd;opacity:255;"></rect><rect id="7-10" x="6" y="9" width="1" height="1" shape-rendering="crispEdges" style="fill:#dddcdd;opacity:255;"></rect><rect id="8-10" x="7" y="9" width="1" height="1" shape-rendering="crispEdges" style="fill:#dddddd;opacity:255;"></rect><rect id="10-10" x="9" y="9" width="1" height="1" shape-rendering="crispEdges" style="fill:#dddddd;opacity:255;"></rect><rect id="16-10" x="15" y="9" width="1" height="1" shape-rendering="crispEdges" style="fill:#dddddd;opacity:255;"></rect><rect id="17-10" x="16" y="9" width="1" height="1" shape-rendering="crispEdges" style="fill:#dddcdd;opacity:255;"></rect><rect id="6-11" x="5" y="10" width="1" height="1" shape-rendering="crispEdges" style="fill:#dddddd;opacity:255;"></rect><rect id="8-11" x="7" y="10" width="1" height="1" shape-rendering="crispEdges" style="fill:#dddcdd;opacity:255;"></rect><rect id="16-11" x="15" y="10" width="1" height="1" shape-rendering="crispEdges" style="fill:#dddddd;opacity:255;"></rect><rect id="17-11" x="16" y="10" width="1" height="1" shape-rendering="crispEdges" style="fill:#dddddd;opacity:255;"></rect><rect id="6-12" x="5" y="11" width="1" height="1" shape-rendering="crispEdges" style="fill:#dddddd;opacity:255;"></rect><rect id="8-12" x="7" y="11" width="1" height="1" shape-rendering="crispEdges" style="fill:#dddddc;opacity:255;"></rect><rect id="16-12" x="15" y="11" width="1" height="1" shape-rendering="crispEdges" style="fill:#dddddd;opacity:255;"></rect><rect id="17-12" x="16" y="11" width="1" height="1" shape-rendering="crispEdges" style="fill:#dddddd;opacity:255;"></rect><rect id="6-13" x="5" y="12" width="1" height="1" shape-rendering="crispEdges" style="fill:#dcdcdd;opacity:255;"></rect><rect id="8-13" x="7" y="12" width="1" height="1" shape-rendering="crispEdges" style="fill:#dddddd;opacity:255;"></rect><rect id="16-13" x="15" y="12" width="1" height="1" shape-rendering="crispEdges" style="fill:#dddddd;opacity:255;"></rect><rect id="17-13" x="16" y="12" width="1" height="1" shape-rendering="crispEdges" style="fill:#dddddc;opacity:255;"></rect><rect id="6-14" x="5" y="13" width="1" height="1" shape-rendering="crispEdges" style="fill:#dddddd;opacity:255;"></rect><rect id="8-14" x="7" y="13" width="1" height="1" shape-rendering="crispEdges" style="fill:#dcdddc;opacity:255;"></rect><rect id="16-14" x="15" y="13" width="1" height="1" shape-rendering="crispEdges" style="fill:#dddddc;opacity:255;"></rect><rect id="17-14" x="16" y="13" width="1" height="1" shape-rendering="crispEdges" style="fill:#dddddd;opacity:255;"></rect><rect id="6-15" x="5" y="14" width="1" height="1" shape-rendering="crispEdges" style="fill:#dddddd;opacity:255;"></rect><rect id="8-15" x="7" y="14" width="1" height="1" shape-rendering="crispEdges" style="fill:#dcdddd;opacity:255;"></rect><rect id="16-15" x="15" y="14" width="1" height="1" shape-rendering="crispEdges" style="fill:#dddcdd;opacity:255;"></rect><rect id="17-15" x="16" y="14" width="1" height="1" shape-rendering="crispEdges" style="fill:#dddddd;opacity:255;"></rect><rect id="6-16" x="5" y="15" width="1" height="1" shape-rendering="crispEdges" style="fill:#dddddc;opacity:255;"></rect><rect id="7-16" x="6" y="15" width="1" height="1" shape-rendering="crispEdges" style="fill:#dddddd;opacity:255;"></rect><rect id="8-16" x="7" y="15" width="1" height="1" shape-rendering="crispEdges" style="fill:#dddddd;opacity:255;"></rect><rect id="16-16" x="15" y="15" width="1" height="1" shape-rendering="crispEdges" style="fill:#dddddd;opacity:255;"></rect><rect id="17-16" x="16" y="15" width="1" height="1" shape-rendering="crispEdges" style="fill:#dddddd;opacity:255;"></rect><rect id="6-17" x="5" y="16" width="1" height="1" shape-rendering="crispEdges" style="fill:#dddddd;opacity:255;"></rect><rect id="8-17" x="7" y="16" width="1" height="1" shape-rendering="crispEdges" style="fill:#dddddd;opacity:255;"></rect><rect id="16-17" x="15" y="16" width="1" height="1" shape-rendering="crispEdges" style="fill:#dddcdd;opacity:255;"></rect><rect id="17-17" x="16" y="16" width="1" height="1" shape-rendering="crispEdges" style="fill:#dddcdd;opacity:255;"></rect><rect id="6-18" x="5" y="17" width="1" height="1" shape-rendering="crispEdges" style="fill:#dcdddd;opacity:255;"></rect><rect id="7-18" x="6" y="17" width="1" height="1" shape-rendering="crispEdges" style="fill:#dddddd;opacity:255;"></rect><rect id="8-18" x="7" y="17" width="1" height="1" shape-rendering="crispEdges" style="fill:#dddddd;opacity:255;"></rect><rect id="16-18" x="15" y="17" width="1" height="1" shape-rendering="crispEdges" style="fill:#dddddd;opacity:255;"></rect><rect id="17-18" x="16" y="17" width="1" height="1" shape-rendering="crispEdges" style="fill:#dddddd;opacity:255;"></rect><rect id="5-19" x="4" y="18" width="1" height="1" shape-rendering="crispEdges" style="fill:#dddcdc;opacity:255;"></rect><rect id="9-19" x="8" y="18" width="1" height="1" shape-rendering="crispEdges" style="fill:#dddddd;opacity:255;"></rect><rect id="6-20" x="5" y="19" width="1" height="1" shape-rendering="crispEdges" style="fill:#dddddd;opacity:255;"></rect><rect id="7-20" x="6" y="19" width="1" height="1" shape-rendering="crispEdges" style="fill:#dddddd;opacity:255;"></rect><rect id="8-20" x="7" y="19" width="1" height="1" shape-rendering="crispEdges" style="fill:#dddddd;opacity:255;"></rect><rect id="16-20" x="15" y="19" width="1" height="1" shape-rendering="crispEdges" style="fill:#dddddd;opacity:255;"></rect><rect id="17-20" x="16" y="19" width="1" height="1" shape-rendering="crispEdges" style="fill:#dddddd;opacity:255;"></rect></svg>